<?xml version="1.0" encoding="us-ascii" standalone="no"?><svg xmlns="http://www.w3.org/2000/svg" xmlns:xlink="http://www.w3.org/1999/xlink" contentStyleType="text/css" height="865px" preserveAspectRatio="none" style="width:1817px;height:865px;background:#FFFFFF;" version="1.1" viewBox="0 0 1817 865" width="1817px" zoomAndPan="magnify"><defs/><g><rect fill="#FFFFFF" height="499.4609" style="stroke:#181818;stroke-width:1.0;" width="10" x="481.5" y="189.0078"/><rect fill="#FFFFFF" height="521.8125" style="stroke:#181818;stroke-width:1.0;" width="10" x="1403.5" y="166.6563"/><rect fill="none" height="188.2969" style="stroke:#000000;stroke-width:1.5;" width="1491.5" x="10" y="234.3594"/><rect fill="none" height="79.0547" style="stroke:#000000;stroke-width:1.5;" width="1248" x="10" y="601.4141"/><line style="stroke:#181818;stroke-width:0.5;stroke-dasharray:5.0,5.0;" x1="69" x2="69" y1="156.6563" y2="697.4688"/><line style="stroke:#181818;stroke-width:0.5;stroke-dasharray:5.0,5.0;" x1="486" x2="486" y1="156.6563" y2="697.4688"/><line style="stroke:#181818;stroke-width:0.5;stroke-dasharray:5.0,5.0;" x1="923" x2="923" y1="156.6563" y2="697.4688"/><line style="stroke:#181818;stroke-width:0.5;stroke-dasharray:5.0,5.0;" x1="1161" x2="1161" y1="156.6563" y2="697.4688"/><line style="stroke:#181818;stroke-width:0.5;stroke-dasharray:5.0,5.0;" x1="1408.5" x2="1408.5" y1="156.6563" y2="697.4688"/><line style="stroke:#181818;stroke-width:0.5;stroke-dasharray:5.0,5.0;" x1="1690" x2="1690" y1="156.6563" y2="697.4688"/><text fill="#000000" font-family="sans-serif" font-size="14" lengthAdjust="spacing" textLength="93" x="20" y="153.5801">&#1055;&#1086;&#1083;&#1100;&#1079;&#1086;&#1074;&#1072;&#1090;&#1077;&#1083;&#1100;</text><ellipse cx="69.5" cy="87.5469" fill="#E2E2F0" rx="8" ry="8" style="stroke:#181818;stroke-width:0.5;"/><path d="M69.5,95.5469 L69.5,122.5469 M56.5,103.5469 L82.5,103.5469 M69.5,122.5469 L56.5,137.5469 M69.5,122.5469 L82.5,137.5469 " fill="none" style="stroke:#181818;stroke-width:0.5;"/><text fill="#000000" font-family="sans-serif" font-size="14" lengthAdjust="spacing" textLength="93" x="20" y="711.002">&#1055;&#1086;&#1083;&#1100;&#1079;&#1086;&#1074;&#1072;&#1090;&#1077;&#1083;&#1100;</text><ellipse cx="69.5" cy="722.5781" fill="#E2E2F0" rx="8" ry="8" style="stroke:#181818;stroke-width:0.5;"/><path d="M69.5,730.5781 L69.5,757.5781 M56.5,738.5781 L82.5,738.5781 M69.5,757.5781 L56.5,772.5781 M69.5,757.5781 L82.5,772.5781 " fill="none" style="stroke:#181818;stroke-width:0.5;"/><rect fill="#E2E2F0" height="66.8281" rx="2.5" ry="2.5" style="stroke:#181818;stroke-width:0.5;" width="317" x="328" y="88.8281"/><text fill="#000000" font-family="sans-serif" font-size="14" font-weight="bold" lengthAdjust="spacing" textLength="98" x="437.5" y="110.3613">&#1052;&#1055;&#1057;&#1054;/&#1057;&#1048;&#1043;&#1052;&#1040;</text><text fill="#000000" font-family="sans-serif" font-size="14" lengthAdjust="spacing" textLength="303" x="335" y="127.9707">0409053.AFL_GRAPH &#1054;&#1090;&#1086;&#1073;&#1088;&#1072;&#1078;&#1077;&#1085;&#1080;&#1077; &#1089;&#1074;&#1077;&#1076;&#1077;&#1085;&#1080;&#1081;</text><text fill="#000000" font-family="sans-serif" font-size="14" lengthAdjust="spacing" textLength="295" x="339" y="145.5801">&#1086; &#1089;&#1074;&#1103;&#1079;&#1072;&#1085;&#1085;&#1099;&#1093; &#1083;&#1080;&#1094;&#1072;&#1093; &#1074; &#1074;&#1080;&#1076;&#1077; &#1075;&#1088;&#1072;&#1092;&#1072;-&#1052;&#1055;&#1057;&#1054;_&#1044;&#1057;&#1055;</text><rect fill="#E2E2F0" height="66.8281" rx="2.5" ry="2.5" style="stroke:#181818;stroke-width:0.5;" width="317" x="328" y="696.4688"/><text fill="#000000" font-family="sans-serif" font-size="14" font-weight="bold" lengthAdjust="spacing" textLength="98" x="437.5" y="718.002">&#1052;&#1055;&#1057;&#1054;/&#1057;&#1048;&#1043;&#1052;&#1040;</text><text fill="#000000" font-family="sans-serif" font-size="14" lengthAdjust="spacing" textLength="303" x="335" y="735.6113">0409053.AFL_GRAPH &#1054;&#1090;&#1086;&#1073;&#1088;&#1072;&#1078;&#1077;&#1085;&#1080;&#1077; &#1089;&#1074;&#1077;&#1076;&#1077;&#1085;&#1080;&#1081;</text><text fill="#000000" font-family="sans-serif" font-size="14" lengthAdjust="spacing" textLength="295" x="339" y="753.2207">&#1086; &#1089;&#1074;&#1103;&#1079;&#1072;&#1085;&#1085;&#1099;&#1093; &#1083;&#1080;&#1094;&#1072;&#1093; &#1074; &#1074;&#1080;&#1076;&#1077; &#1075;&#1088;&#1072;&#1092;&#1072;-&#1052;&#1055;&#1057;&#1054;_&#1044;&#1057;&#1055;</text><text fill="#000000" font-family="sans-serif" font-size="14" font-weight="bold" lengthAdjust="spacing" textLength="36" x="902.5" y="118.3613">OLTP</text><text fill="#000000" font-family="sans-serif" font-size="14" lengthAdjust="spacing" textLength="116" x="862.5" y="135.9707">(&#1089;&#1093;&#1077;&#1084;&#1072;: OSD_DM)</text><text fill="#000000" font-family="sans-serif" font-size="14" lengthAdjust="spacing" textLength="277" x="782" y="153.5801">(&#1090;&#1072;&#1073;&#1083;&#1080;&#1094;&#1072;: BO_EXT_DATAMART_LOADED)</text><path d="M905.5,67.8281 C905.5,57.8281 923.5,57.8281 923.5,57.8281 C923.5,57.8281 941.5,57.8281 941.5,67.8281 L941.5,93.8281 C941.5,103.8281 923.5,103.8281 923.5,103.8281 C923.5,103.8281 905.5,103.8281 905.5,93.8281 L905.5,67.8281 " fill="#E2E2F0" style="stroke:#181818;stroke-width:1.5;"/><path d="M905.5,67.8281 C905.5,77.8281 923.5,77.8281 923.5,77.8281 C923.5,77.8281 941.5,77.8281 941.5,67.8281 " fill="none" style="stroke:#181818;stroke-width:1.5;"/><text fill="#000000" font-family="sans-serif" font-size="14" font-weight="bold" lengthAdjust="spacing" textLength="36" x="902.5" y="711.002">OLTP</text><text fill="#000000" font-family="sans-serif" font-size="14" lengthAdjust="spacing" textLength="116" x="862.5" y="728.6113">(&#1089;&#1093;&#1077;&#1084;&#1072;: OSD_DM)</text><text fill="#000000" font-family="sans-serif" font-size="14" lengthAdjust="spacing" textLength="277" x="782" y="746.2207">(&#1090;&#1072;&#1073;&#1083;&#1080;&#1094;&#1072;: BO_EXT_DATAMART_LOADED)</text><path d="M905.5,759.2969 C905.5,749.2969 923.5,749.2969 923.5,749.2969 C923.5,749.2969 941.5,749.2969 941.5,759.2969 L941.5,785.2969 C941.5,795.2969 923.5,795.2969 923.5,795.2969 C923.5,795.2969 905.5,795.2969 905.5,785.2969 L905.5,759.2969 " fill="#E2E2F0" style="stroke:#181818;stroke-width:1.5;"/><path d="M905.5,759.2969 C905.5,769.2969 923.5,769.2969 923.5,769.2969 C923.5,769.2969 941.5,769.2969 941.5,759.2969 " fill="none" style="stroke:#181818;stroke-width:1.5;"/><rect fill="#E2E2F0" height="49.2188" rx="2.5" ry="2.5" style="stroke:#181818;stroke-width:0.5;" width="173" x="1075" y="106.4375"/><text fill="#000000" font-family="sans-serif" font-size="14" font-weight="bold" lengthAdjust="spacing" textLength="126" x="1098.5" y="127.9707">&#1053;&#1048;&#1050;&#1040;  &#1060;&#1056;&#1054;&#1053;&#1058;&#1069;&#1053;&#1044;</text><text fill="#000000" font-family="sans-serif" font-size="14" lengthAdjust="spacing" textLength="159" x="1082" y="145.5801">(&#1073;&#1072;&#1088;&#1091;&#1079;&#1077;&#1088; &#1087;&#1086;&#1083;&#1100;&#1079;&#1086;&#1074;&#1072;&#1090;&#1077;&#1083;&#1103;)</text><rect fill="#E2E2F0" height="49.2188" rx="2.5" ry="2.5" style="stroke:#181818;stroke-width:0.5;" width="173" x="1075" y="696.4688"/><text fill="#000000" font-family="sans-serif" font-size="14" font-weight="bold" lengthAdjust="spacing" textLength="126" x="1098.5" y="718.002">&#1053;&#1048;&#1050;&#1040;  &#1060;&#1056;&#1054;&#1053;&#1058;&#1069;&#1053;&#1044;</text><text fill="#000000" font-family="sans-serif" font-size="14" lengthAdjust="spacing" textLength="159" x="1082" y="735.6113">(&#1073;&#1072;&#1088;&#1091;&#1079;&#1077;&#1088; &#1087;&#1086;&#1083;&#1100;&#1079;&#1086;&#1074;&#1072;&#1090;&#1077;&#1083;&#1103;)</text><rect fill="#E2E2F0" height="31.6094" rx="2.5" ry="2.5" style="stroke:#181818;stroke-width:0.5;" width="166" x="1325.5" y="124.0469"/><text fill="#000000" font-family="sans-serif" font-size="14" font-weight="bold" lengthAdjust="spacing" textLength="59" x="1332.5" y="145.5801">&#1041;&#1069;&#1050;&#1069;&#1053;&#1044;</text><text fill="#000000" font-family="sans-serif" font-size="14" lengthAdjust="spacing" textLength="89" x="1395.5" y="145.5801">(&#1084;&#1080;&#1088;&#1086;&#1089;&#1077;&#1088;&#1074;&#1080;&#1089;)</text><rect fill="#E2E2F0" height="31.6094" rx="2.5" ry="2.5" style="stroke:#181818;stroke-width:0.5;" width="166" x="1325.5" y="696.4688"/><text fill="#000000" font-family="sans-serif" font-size="14" font-weight="bold" lengthAdjust="spacing" textLength="59" x="1332.5" y="718.002">&#1041;&#1069;&#1050;&#1069;&#1053;&#1044;</text><text fill="#000000" font-family="sans-serif" font-size="14" lengthAdjust="spacing" textLength="89" x="1395.5" y="718.002">(&#1084;&#1080;&#1088;&#1086;&#1089;&#1077;&#1088;&#1074;&#1080;&#1089;)</text><text fill="#000000" font-family="sans-serif" font-size="14" font-weight="bold" lengthAdjust="spacing" textLength="23" x="1676" y="65.5332">DM</text><text fill="#000000" font-family="sans-serif" font-size="14" lengthAdjust="spacing" textLength="199" x="1586" y="83.1426">(&#1089;&#1093;&#1077;&#1084;&#1072;: prdn_DM_RCO_DATA)</text><text fill="#000000" font-family="sans-serif" font-size="14" lengthAdjust="spacing" textLength="245" x="1565" y="100.752">(&#1090;&#1072;&#1073;&#1083;&#1080;&#1094;&#1099;: BO_AFL_GRAPH_HEADER</text><text fill="#000000" font-family="sans-serif" font-size="14" lengthAdjust="spacing" textLength="157" x="1609" y="118.3613">BO_AFL_GRAPH_EDGE</text><text fill="#000000" font-family="sans-serif" font-size="14" lengthAdjust="spacing" textLength="177" x="1599" y="135.9707">BO_AFL_GRAPH_VERTEX)</text><text fill="#000000" font-family="sans-serif" font-size="14" lengthAdjust="spacing" textLength="28" x="1673.5" y="153.5801">KHD</text><path d="M1672.5,15 C1672.5,5 1690.5,5 1690.5,5 C1690.5,5 1708.5,5 1708.5,15 L1708.5,41 C1708.5,51 1690.5,51 1690.5,51 C1690.5,51 1672.5,51 1672.5,41 L1672.5,15 " fill="#E2E2F0" style="stroke:#181818;stroke-width:1.5;"/><path d="M1672.5,15 C1672.5,25 1690.5,25 1690.5,25 C1690.5,25 1708.5,25 1708.5,15 " fill="none" style="stroke:#181818;stroke-width:1.5;"/><text fill="#000000" font-family="sans-serif" font-size="14" font-weight="bold" lengthAdjust="spacing" textLength="23" x="1676" y="711.002">DM</text><text fill="#000000" font-family="sans-serif" font-size="14" lengthAdjust="spacing" textLength="199" x="1586" y="728.6113">(&#1089;&#1093;&#1077;&#1084;&#1072;: prdn_DM_RCO_DATA)</text><text fill="#000000" font-family="sans-serif" font-size="14" lengthAdjust="spacing" textLength="245" x="1565" y="746.2207">(&#1090;&#1072;&#1073;&#1083;&#1080;&#1094;&#1099;: BO_AFL_GRAPH_HEADER</text><text fill="#000000" font-family="sans-serif" font-size="14" lengthAdjust="spacing" textLength="157" x="1609" y="763.8301">BO_AFL_GRAPH_EDGE</text><text fill="#000000" font-family="sans-serif" font-size="14" lengthAdjust="spacing" textLength="177" x="1599" y="781.4395">BO_AFL_GRAPH_VERTEX)</text><text fill="#000000" font-family="sans-serif" font-size="14" lengthAdjust="spacing" textLength="28" x="1673.5" y="799.0488">KHD</text><path d="M1672.5,812.125 C1672.5,802.125 1690.5,802.125 1690.5,802.125 C1690.5,802.125 1708.5,802.125 1708.5,812.125 L1708.5,838.125 C1708.5,848.125 1690.5,848.125 1690.5,848.125 C1690.5,848.125 1672.5,848.125 1672.5,838.125 L1672.5,812.125 " fill="#E2E2F0" style="stroke:#181818;stroke-width:1.5;"/><path d="M1672.5,812.125 C1672.5,822.125 1690.5,822.125 1690.5,822.125 C1690.5,822.125 1708.5,822.125 1708.5,812.125 " fill="none" style="stroke:#181818;stroke-width:1.5;"/><rect fill="#FFFFFF" height="499.4609" style="stroke:#181818;stroke-width:1.0;" width="10" x="481.5" y="189.0078"/><rect fill="#FFFFFF" height="521.8125" style="stroke:#181818;stroke-width:1.0;" width="10" x="1403.5" y="166.6563"/><polygon fill="#181818" points="469.5,185.0078,479.5,189.0078,469.5,193.0078,473.5,189.0078" style="stroke:#181818;stroke-width:1.0;"/><line style="stroke:#181818;stroke-width:1.0;" x1="69.5" x2="475.5" y1="189.0078" y2="189.0078"/><text fill="#000000" font-family="sans-serif" font-size="13" lengthAdjust="spacing" textLength="278" x="76.5" y="184.1514">&#1047;&#1072;&#1087;&#1091;&#1089;&#1082; &#1086;&#1090;&#1095;&#1077;&#1090;&#1072;-&#1087;&#1088;&#1086;&#1089;&#1083;&#1086;&#1081;&#1082;&#1080; &#1074; &#1080;&#1085;&#1090;&#1088;&#1077;&#1092;&#1077;&#1081;&#1089;&#1077; &#1052;&#1055;&#1057;&#1054;</text><polygon fill="#181818" points="911.5,215.3594,921.5,219.3594,911.5,223.3594,915.5,219.3594" style="stroke:#181818;stroke-width:1.0;"/><line style="stroke:#181818;stroke-width:1.0;" x1="491.5" x2="917.5" y1="219.3594" y2="219.3594"/><text fill="#000000" font-family="sans-serif" font-size="13" lengthAdjust="spacing" textLength="408" x="498.5" y="214.5029">&#1086;&#1073;&#1088;&#1072;&#1097;&#1077;&#1085;&#1080;&#1077; &#1082; &#1090;&#1072;&#1073;&#1083;&#1080;&#1094;&#1077; &#1087;&#1086; &#1048;&#1044; &#1086;&#1090;&#1095;&#1077;&#1090;&#1072; &#1076;&#1083;&#1103; &#1087;&#1086;&#1083;&#1091;&#1095;&#1077;&#1085;&#1080;&#1077; &#1089;&#1089;&#1099;&#1083;&#1082;&#1080; &#1085;&#1072; &#1053;&#1048;&#1050;&#1040;</text><path d="M10,234.3594 L71,234.3594 L71,242.7109 L61,252.7109 L10,252.7109 L10,234.3594 " fill="#EEEEEE" style="stroke:#000000;stroke-width:1.5;"/><rect fill="none" height="188.2969" style="stroke:#000000;stroke-width:1.5;" width="1491.5" x="10" y="234.3594"/><text fill="#000000" font-family="sans-serif" font-size="13" font-weight="bold" lengthAdjust="spacing" textLength="16" x="25" y="248.8545">alt</text><text fill="#000000" font-family="sans-serif" font-size="11" font-weight="bold" lengthAdjust="spacing" textLength="255" x="86" y="247.7783">[&#1086;&#1090;&#1095;&#1077;&#1090; &#1091;&#1078;&#1077; &#1087;&#1077;&#1088;&#1077;&#1075;&#1088;&#1091;&#1078;&#1077;&#1085; &#1080; &#1089;&#1089;&#1099;&#1083;&#1082;&#1072; &#1089;&#1091;&#1097;&#1077;&#1089;&#1090;&#1074;&#1091;&#1077;&#1090;]</text><polygon fill="#181818" points="502.5,271.0625,492.5,275.0625,502.5,279.0625,498.5,275.0625" style="stroke:#181818;stroke-width:1.0;"/><line style="stroke:#181818;stroke-width:1.0;" x1="496.5" x2="922.5" y1="275.0625" y2="275.0625"/><text fill="#000000" font-family="sans-serif" font-size="13" lengthAdjust="spacing" textLength="81" x="508.5" y="270.2061">&#1086;&#1090;&#1074;&#1077;&#1090; &#1080;&#1079; &#1073;&#1072;&#1079;&#1099;</text><polygon fill="#181818" points="80.5,301.4141,70.5,305.4141,80.5,309.4141,76.5,305.4141" style="stroke:#181818;stroke-width:1.0;"/><line style="stroke:#181818;stroke-width:1.0;" x1="74.5" x2="480.5" y1="305.4141" y2="305.4141"/><text fill="#000000" font-family="sans-serif" font-size="13" lengthAdjust="spacing" textLength="249" x="86.5" y="300.5576">&#1089;&#1090;&#1088;&#1072;&#1085;&#1080;&#1094;&#1072; &#1089;&#1086; &#1089;&#1089;&#1099;&#1083;&#1082;&#1086;&#1081; &#1076;&#1083;&#1103; &#1087;&#1077;&#1093;&#1086;&#1076;&#1072; &#1074; &#1053;&#1048;&#1050;&#1040;</text><polygon fill="#181818" points="1391.5,348.1172,1401.5,352.1172,1391.5,356.1172,1395.5,352.1172" style="stroke:#181818;stroke-width:1.0;"/><line style="stroke:#181818;stroke-width:1.0;" x1="69.5" x2="1397.5" y1="352.1172" y2="352.1172"/><text fill="#000000" font-family="sans-serif" font-size="13" lengthAdjust="spacing" textLength="394" x="76.5" y="330.9092">&#1087;&#1077;&#1088;&#1077;&#1093;&#1086;&#1076; &#1087;&#1086; &#1089;&#1089;&#1099;&#1083;&#1082;&#1077; &#1074; &#1053;&#1048;&#1050;&#1040; &#1089; ID &#1086;&#1090;&#1095;&#1077;&#1090;&#1072; (URL-report\{ID_SOURCE})</text><text fill="#000000" font-family="sans-serif" font-size="13" lengthAdjust="spacing" textLength="272" x="76.5" y="347.2607">http://10.1.6.28:10000/graph-analytics/1235573</text><line style="stroke:#000000;stroke-width:1.0;stroke-dasharray:2.0,2.0;" x1="10" x2="1501.5" y1="361.1172" y2="361.1172"/><text fill="#000000" font-family="sans-serif" font-size="11" font-weight="bold" lengthAdjust="spacing" textLength="290" x="15" y="372.5361">[&#1086;&#1090;&#1095;&#1077;&#1090; &#1077;&#1097;&#1077; &#1085;&#1077; &#1087;&#1077;&#1088;&#1077;&#1075;&#1088;&#1091;&#1078;&#1077;&#1085; &#1080; &#1089;&#1089;&#1099;&#1083;&#1082;&#1072; &#1085;&#1077; &#1089;&#1091;&#1097;&#1077;&#1089;&#1090;&#1074;&#1091;&#1077;&#1090;]</text><polygon fill="#181818" points="80.5,410.6563,70.5,414.6563,80.5,418.6563,76.5,414.6563" style="stroke:#181818;stroke-width:1.0;"/><line style="stroke:#181818;stroke-width:1.0;" x1="74.5" x2="480.5" y1="414.6563" y2="414.6563"/><text fill="#000000" font-family="sans-serif" font-size="13" lengthAdjust="spacing" textLength="239" x="86.5" y="393.4482">&#1089;&#1090;&#1088;&#1072;&#1085;&#1080;&#1094;&#1072; &#1089; &#1089;&#1086;&#1086;&#1073;&#1097;&#1077;&#1085;&#1080;&#1077;&#1084; &#1095;&#1090;&#1086; &#1089;&#1089;&#1099;&#1083;&#1082;&#1080; &#1085;&#1077;&#1090;</text><text fill="#000000" font-family="sans-serif" font-size="13" lengthAdjust="spacing" textLength="384" x="90.5" y="409.7998">&#1080; &#1092;&#1086;&#1088;&#1084;&#1080;&#1088;&#1086;&#1074;&#1072;&#1085;&#1080;&#1103; &#1074;&#1080;&#1079;&#1091;&#1072;&#1083;&#1080;&#1079;&#1072;&#1094;&#1080;&#1080; &#1074; &#1085;&#1072;&#1089;&#1090;&#1086;&#1103;&#1097;&#1077;&#1077; &#1074;&#1088;&#1077;&#1084;&#1103; &#1085;&#1077;&#1074;&#1086;&#1079;&#1084;&#1086;&#1078;&#1085;&#1086;</text><polygon fill="#181818" points="1678.5,448.0078,1688.5,452.0078,1678.5,456.0078,1682.5,452.0078" style="stroke:#181818;stroke-width:1.0;"/><line style="stroke:#181818;stroke-width:1.0;" x1="1413.5" x2="1684.5" y1="452.0078" y2="452.0078"/><text fill="#000000" font-family="sans-serif" font-size="13" lengthAdjust="spacing" textLength="253" x="1420.5" y="447.1514">&#1079;&#1072;&#1087;&#1088;&#1086;&#1089; &#1082; &#1041;&#1044; &#1085;&#1072; &#1095;&#1090;&#1077;&#1085;&#1080;&#1077; &#1076;&#1072;&#1085;&#1085;&#1099;&#1093; &#1074; &#1090;&#1072;&#1073;&#1083;&#1080;&#1094;&#1072;&#1093;</text><polygon fill="#181818" points="1424.5,478.3594,1414.5,482.3594,1424.5,486.3594,1420.5,482.3594" style="stroke:#181818;stroke-width:1.0;"/><line style="stroke:#181818;stroke-width:1.0;" x1="1418.5" x2="1689.5" y1="482.3594" y2="482.3594"/><text fill="#000000" font-family="sans-serif" font-size="13" lengthAdjust="spacing" textLength="53" x="1430.5" y="477.5029">&#1086;&#1090;&#1074;&#1077;&#1090; &#1041;&#1044;</text><line style="stroke:#181818;stroke-width:1.0;" x1="1413.5" x2="1455.5" y1="512.7109" y2="512.7109"/><line style="stroke:#181818;stroke-width:1.0;" x1="1455.5" x2="1455.5" y1="512.7109" y2="525.7109"/><line style="stroke:#181818;stroke-width:1.0;" x1="1414.5" x2="1455.5" y1="525.7109" y2="525.7109"/><polygon fill="#181818" points="1424.5,521.7109,1414.5,525.7109,1424.5,529.7109,1420.5,525.7109" style="stroke:#181818;stroke-width:1.0;"/><text fill="#000000" font-family="sans-serif" font-size="13" lengthAdjust="spacing" textLength="109" x="1420.5" y="507.8545">&#1086;&#1073;&#1088;&#1072;&#1073;&#1086;&#1090;&#1082;&#1072; &#1076;&#1072;&#1085;&#1085;&#1099;&#1093;</text><polygon fill="#181818" points="1172.5,552.0625,1162.5,556.0625,1172.5,560.0625,1168.5,556.0625" style="stroke:#181818;stroke-width:1.0;"/><line style="stroke:#181818;stroke-width:1.0;" x1="1166.5" x2="1402.5" y1="556.0625" y2="556.0625"/><text fill="#000000" font-family="sans-serif" font-size="13" lengthAdjust="spacing" textLength="218" x="1178.5" y="551.2061">&#1087;&#1077;&#1088;&#1077;&#1076;&#1072;&#1095;&#1072; &#1076;&#1072;&#1085;&#1085;&#1099;&#1093; &#1076;&#1083;&#1103; &#1074;&#1080;&#1079;&#1091;&#1072;&#1083;&#1080;&#1079;&#1072;&#1094;&#1080;&#1080;</text><polygon fill="#181818" points="80.5,582.4141,70.5,586.4141,80.5,590.4141,76.5,586.4141" style="stroke:#181818;stroke-width:1.0;"/><line style="stroke:#181818;stroke-width:1.0;" x1="74.5" x2="1160.5" y1="586.4141" y2="586.4141"/><text fill="#000000" font-family="sans-serif" font-size="13" lengthAdjust="spacing" textLength="137" x="86.5" y="581.5576">&#1079;&#1072;&#1075;&#1088;&#1091;&#1079;&#1082;&#1072; &#1074;&#1080;&#1079;&#1091;&#1072;&#1083;&#1080;&#1079;&#1072;&#1094;&#1080;&#1080;</text><path d="M10,601.4141 L83,601.4141 L83,609.7656 L73,619.7656 L10,619.7656 L10,601.4141 " fill="#EEEEEE" style="stroke:#000000;stroke-width:1.5;"/><rect fill="none" height="79.0547" style="stroke:#000000;stroke-width:1.5;" width="1248" x="10" y="601.4141"/><text fill="#000000" font-family="sans-serif" font-size="13" font-weight="bold" lengthAdjust="spacing" textLength="28" x="25" y="615.9092">loop</text><text fill="#000000" font-family="sans-serif" font-size="11" font-weight="bold" lengthAdjust="spacing" textLength="51" x="98" y="614.833">[unil exit]</text><polygon fill="#181818" points="1149.5,638.1172,1159.5,642.1172,1149.5,646.1172,1153.5,642.1172" style="stroke:#181818;stroke-width:1.0;"/><line style="stroke:#181818;stroke-width:1.0;" x1="69.5" x2="1155.5" y1="642.1172" y2="642.1172"/><text fill="#000000" font-family="sans-serif" font-size="13" lengthAdjust="spacing" textLength="330" x="76.5" y="637.2607">&#1076;&#1077;&#1081;&#1089;&#1090;&#1074;&#1080;&#1103; &#1087;&#1086;&#1083;&#1100;&#1079;&#1086;&#1074;&#1072;&#1090;&#1077;&#1083;&#1103;: &#1079;&#1072;&#1076;&#1072;&#1085;&#1080;&#1077; &#1092;&#1080;&#1083;&#1100;&#1090;&#1088;&#1086;&#1074;, &#1087;&#1086;&#1080;&#1089;&#1082;, &#1080;&#1090;.&#1087;</text><polygon fill="#181818" points="80.5,668.4688,70.5,672.4688,80.5,676.4688,76.5,672.4688" style="stroke:#181818;stroke-width:1.0;"/><line style="stroke:#181818;stroke-width:1.0;" x1="74.5" x2="1160.5" y1="672.4688" y2="672.4688"/><text fill="#000000" font-family="sans-serif" font-size="13" lengthAdjust="spacing" textLength="156" x="86.5" y="667.6123">&#1086;&#1073;&#1085;&#1086;&#1074;&#1083;&#1077;&#1085;&#1080;&#1077; &#1074;&#1080;&#1079;&#1091;&#1072;&#1083;&#1080;&#1079;&#1072;&#1094;&#1080;&#1080;</text><!--SRC=[ZLLTRzD857tthnZrgPN8LqlPNGj52ZXGHAgW410FaIotYI0YE9PZqAxGIcrI5g6kL5PR2OJOihlY5Sajk4a_ulw5E_-8CpDsOgUjH1BPdidCFUUUU-xOMlUwBfkZJnJI2V-JXhWVaC_x58Zn7BDwx7clvRAksyIraDSqpR5ShxtUTYpROtFNruhq4Tl_exqSBk_fRmpVNi-j5Hjs_ch-b_poKhPqgsBUhfNkhJ3QG-IGzla6-NG8Z36DA61y4w01VOicZXesXNAIxu2HZyant-Ql69tGYFy1UdWym0zhiOVHLn6FRv6VYRcOj8lR9yd_cTFhrbfEfMq_ZT9Op6jDoxFMh5vBPb2jrEyfolDyaxy2ZLFoTLQzRvZ6weAOxOF5VWolinjLi_oeRXgbUccrLAkRbMh9A1iB4gxRQnhFZ3Yy0bpAdrVj7uZrWTuoHf_fNzh3-7_wWkjkn0HuFj_W0oWGy0r6PnUMQ4U1sksdrYstYzWAyEe5W7yX_8Sf19j7bYCe5q9f80Wv-UOqt0rhFTPhUKOlO_K2jHotQKCkitQpAeLPO3F2yMqftCGDvaePgjKQTcgoRDmkpqmzBDVgvKUemzqLGz9hpkfxJVXI-3HJJ5HRP_GEy6TyW0oF6HBjyzT8jI-CSXPbVW8vZ-YOHj9I8pYjZty2k2cW8w4CYpsbMUjU-uNbjLAEqfA3J35TVZqsEtypCJkOfEmKoD8ok64tHP71swXlNFY1c9_q2xxRs2zfZyNQo4sQrV4IKHZiSwWGH8K3qIbgYiP8DXd85uE1u8bx7wqt406qj9kHNr9V0IGw5q3WDMJ2iZJasqbDCaLH5rq4bLq_LZqasZjCugCAYOm3-2h4q9TLYPDJ5OxDgSTPgRLAnaJ48BaNVx0xHbhW-GUrIiPjELtNQxoyOvZtgmzgDyk_msXFFC_HSxb2Fbl8Niik_gmNylZa7hkMyoHZsLRdDxHMBrTON5fU_cb9QtMWJK9rNDu8-F6FIYzNNgZ_3oafnPHMczYCJXb_BGxRSsP1r8Oj6Mo1yaPy28WpHORSKGVh40HyOL5n0WDd57K8t2O9Xdn7eWcLPNwdOYV2OtU8FQUu7c8SQYsxgKrx9wwU5ZzaYjDsHiSEPSVAtXIjWbDhLrbSfZDfec_9ry91kgFmVj2cCHE6OKd38d22Gt9Dz7xQbwkFLITEq6Rso4DNdrOPAs42VuPWvEjBTDKcWQ8IAnM-HgU_P73Prawtwx3dThl3Mh-sFOqbFjDkYKWo-OOzKlvIbRxafH8nK3d84sSBDooKriFIAshhI1oiU1xnVfREKkZdSuAkmW_0EPdMyRAyX6c-0m00]--></g></svg>