<?xml version="1.0" encoding="UTF-8" standalone="no"?><svg xmlns="http://www.w3.org/2000/svg" xmlns:xlink="http://www.w3.org/1999/xlink" contentStyleType="text/css" height="493px" preserveAspectRatio="none" style="width:625px;height:493px;background:#FFFFFF;" version="1.1" viewBox="0 0 625 493" width="625px" zoomAndPan="magnify"><defs/><g><ellipse cx="123.5" cy="20" fill="#222222" rx="10" ry="10" style="stroke:#222222;stroke-width:1.0;"/><rect fill="#F1F1F1" height="50.1875" style="stroke:#181818;stroke-width:0.5;" width="200" x="23.5" y="50"/><text fill="#000000" font-family="sans-serif" font-size="12" lengthAdjust="spacing" textLength="180" x="33.5" y="72.457">В МПСО новый "утвержденный"</text><text fill="#000000" font-family="sans-serif" font-size="12" lengthAdjust="spacing" textLength="118" x="33.5" y="87.5508">и "актуальный" отчет</text><path d="M278,182.2305 L278,224.9336 L559,224.9336 L559,192.2305 L549,182.2305 L278,182.2305 " fill="#FEFFDD" style="stroke:#181818;stroke-width:0.5;"/><path d="M549,182.2305 L549,192.2305 L559,192.2305 L549,182.2305 " fill="#FEFFDD" style="stroke:#181818;stroke-width:0.5;"/><text fill="#000000" font-family="sans-serif" font-size="13" lengthAdjust="spacing" textLength="260" x="284" y="200.7256">Для проверки периода "сбора" или "замен"</text><text fill="#000000" font-family="sans-serif" font-size="13" lengthAdjust="spacing" textLength="126" x="284" y="217.0771">создаем/используем</text><text fill="#000000" font-family="sans-serif" font-size="13" font-style="italic" lengthAdjust="spacing" textLength="21" x="410" y="217.0771">???</text><text fill="#000000" font-family="sans-serif" font-size="13" lengthAdjust="spacing" textLength="69" x="435" y="217.0771">справочник</text><rect fill="#F1F1F1" height="65.2813" rx="12.5" ry="12.5" style="stroke:#181818;stroke-width:0.5;" width="225" x="11" y="172.7773"/><text fill="#000000" font-family="sans-serif" font-size="12" lengthAdjust="spacing" textLength="205" x="21" y="195.2344">удалить предыдущую версию отчета</text><text fill="#000000" font-family="sans-serif" font-size="12" lengthAdjust="spacing" textLength="193" x="21" y="210.3281">из таблицы истории, поступившую</text><text fill="#000000" font-family="sans-serif" font-size="12" lengthAdjust="spacing" textLength="203" x="21" y="225.4219">в текущий период сбора или замен;</text><polygon fill="#F1F1F1" points="71.5,120.1875,175.5,120.1875,187.5,134.0234,175.5,147.8594,71.5,147.8594,59.5,134.0234,71.5,120.1875" style="stroke:#181818;stroke-width:0.5;"/><text fill="#000000" font-family="sans-serif" font-size="11" lengthAdjust="spacing" textLength="12" x="127.5" y="159.2783">да</text><text fill="#000000" font-family="sans-serif" font-size="11" lengthAdjust="spacing" textLength="75" x="71.5" y="131.6064">сейчас период</text><text fill="#000000" font-family="sans-serif" font-size="11" lengthAdjust="spacing" textLength="101" x="71.5" y="145.4424">"сбора" или "замен"</text><text fill="#000000" font-family="sans-serif" font-size="11" lengthAdjust="spacing" textLength="18" x="187.5" y="131.6064">нет</text><polygon fill="#F1F1F1" points="123.5,258.0586,135.5,270.0586,123.5,282.0586,111.5,270.0586,123.5,258.0586" style="stroke:#181818;stroke-width:0.5;"/><path d="M241.5,292.0586 L241.5,363.4648 L221.5,367.4648 L241.5,371.4648 L241.5,442.8711 A0,0 0 0 0 241.5,442.8711 L613.5,442.8711 A0,0 0 0 0 613.5,442.8711 L613.5,302.0586 L603.5,292.0586 L241.5,292.0586 A0,0 0 0 0 241.5,292.0586 " fill="#FEFFDD" style="stroke:#181818;stroke-width:0.5;"/><path d="M603.5,292.0586 L603.5,302.0586 L613.5,302.0586 L603.5,292.0586 " fill="#FEFFDD" style="stroke:#181818;stroke-width:0.5;"/><text fill="#000000" font-family="sans-serif" font-size="13" lengthAdjust="spacing" textLength="208" x="247.5" y="310.5537">Создаем дополнительную таблицу</text><text fill="#000000" font-family="sans-serif" font-size="13" font-style="italic" lengthAdjust="spacing" textLength="139" x="459.5" y="310.5537">BO_NDO_HISTORICAL</text><text fill="#000000" font-family="sans-serif" font-size="13" lengthAdjust="spacing" textLength="306" x="247.5" y="326.9053">в которую будем помещать все записи с историей</text><text fill="#000000" font-family="sans-serif" font-size="13" lengthAdjust="spacing" textLength="305" x="247.5" y="343.2568">предлагаю также предусмотреть что в эту таблицу</text><text fill="#000000" font-family="sans-serif" font-size="13" lengthAdjust="spacing" textLength="308" x="247.5" y="359.6084">будем складывать сведения по форме 201 с также</text><text fill="#000000" font-family="sans-serif" font-size="13" lengthAdjust="spacing" textLength="54" x="247.5" y="375.96">историей</text><line style="stroke:#181818;stroke-width:1.0;" x1="241.5" x2="613.5" y1="383.8164" y2="383.8164"/><line style="stroke:#181818;stroke-width:1.0;" x1="241.5" x2="613.5" y1="385.8164" y2="385.8164"/><ellipse cx="253" cy="397.668" fill="#000000" rx="2.5" ry="2.5" style="stroke:#000000;stroke-width:0.0;"/><text fill="#000000" font-family="sans-serif" font-size="13" lengthAdjust="spacing" textLength="281" x="260.5" y="402.3115">нужно оценить необходимые мероприятия для</text><text fill="#000000" font-family="sans-serif" font-size="13" lengthAdjust="spacing" textLength="318" x="247.5" y="418.6631">построения агрегатов (месяц квартал полугодие год)</text><text fill="#000000" font-family="sans-serif" font-size="13" lengthAdjust="spacing" textLength="4" x="247.5" y="435.0146"> </text><rect fill="#F1F1F1" height="50.1875" rx="12.5" ry="12.5" style="stroke:#181818;stroke-width:0.5;" width="196" x="25.5" y="342.3711"/><text fill="#000000" font-family="sans-serif" font-size="12" lengthAdjust="spacing" textLength="176" x="35.5" y="364.8281">загрузить новую версию отчета</text><text fill="#000000" font-family="sans-serif" font-size="12" lengthAdjust="spacing" textLength="103" x="35.5" y="379.9219">в таблицу истории</text><ellipse cx="123.5" cy="472.8711" fill="none" rx="10" ry="10" style="stroke:#222222;stroke-width:1.5;"/><line style="stroke:#222222;stroke-width:2.5;" x1="117.3128" x2="129.6872" y1="466.6839" y2="479.0583"/><line style="stroke:#222222;stroke-width:2.5;" x1="129.6872" x2="117.3128" y1="466.6839" y2="479.0583"/><line style="stroke:#181818;stroke-width:1.0;" x1="123.5" x2="123.5" y1="30" y2="50"/><polygon fill="#181818" points="119.5,40,123.5,50,127.5,40,123.5,44" style="stroke:#181818;stroke-width:1.0;"/><line style="stroke:#181818;stroke-width:1.0;" x1="123.5" x2="123.5" y1="147.8594" y2="172.7773"/><polygon fill="#181818" points="119.5,162.7773,123.5,172.7773,127.5,162.7773,123.5,166.7773" style="stroke:#181818;stroke-width:1.0;"/><line style="stroke:#181818;stroke-width:1.0;" x1="187.5" x2="246" y1="134.0234" y2="134.0234"/><polygon fill="#181818" points="242,194.5,246,204.5,250,194.5,246,198.5" style="stroke:#181818;stroke-width:1.0;"/><line style="stroke:#181818;stroke-width:1.0;" x1="246" x2="246" y1="134.0234" y2="270.0586"/><line style="stroke:#181818;stroke-width:1.0;" x1="246" x2="135.5" y1="270.0586" y2="270.0586"/><polygon fill="#181818" points="145.5,266.0586,135.5,270.0586,145.5,274.0586,141.5,270.0586" style="stroke:#181818;stroke-width:1.0;"/><line style="stroke:#181818;stroke-width:1.0;" x1="123.5" x2="123.5" y1="238.0586" y2="258.0586"/><polygon fill="#181818" points="119.5,248.0586,123.5,258.0586,127.5,248.0586,123.5,252.0586" style="stroke:#181818;stroke-width:1.0;"/><line style="stroke:#181818;stroke-width:1.0;" x1="123.5" x2="123.5" y1="100.1875" y2="120.1875"/><polygon fill="#181818" points="119.5,110.1875,123.5,120.1875,127.5,110.1875,123.5,114.1875" style="stroke:#181818;stroke-width:1.0;"/><line style="stroke:#181818;stroke-width:1.0;" x1="123.5" x2="123.5" y1="282.0586" y2="342.3711"/><polygon fill="#181818" points="119.5,332.3711,123.5,342.3711,127.5,332.3711,123.5,336.3711" style="stroke:#181818;stroke-width:1.0;"/><line style="stroke:#181818;stroke-width:1.0;" x1="123.5" x2="123.5" y1="392.5586" y2="462.8711"/><polygon fill="#181818" points="119.5,452.8711,123.5,462.8711,127.5,452.8711,123.5,456.8711" style="stroke:#181818;stroke-width:1.0;"/><!--MD5=[a5a9e4eb3561ff2c64c6b95f904af5ac]
@startuml
start
:В МПСО новый "утвержденный" 
и "актуальный" отчет]

if  (сейчас период 
"сбора" или "замен" )   then (да)  
:удалить предыдущую версию отчета
из таблицы истории, поступившую
в текущий период сбора или замен; 

else (нет) 
  
note right
Для проверки периода "сбора" или "замен"
создаем/используем//???// справочник
end note

endif 
:загрузить новую версию отчета
в таблицу истории;
note right
  Создаем дополнительную таблицу //BO_NDO_HISTORICAL//
  в которую будем помещать все записи с историей
  предлагаю также предусмотреть что в эту таблицу 
  будем складывать сведения по форме 201 с также
  историей
  ====
  * нужно оценить необходимые мероприятия для 
  построения агрегатов (месяц квартал полугодие год)
  
end note
end
@enduml

PlantUML version 1.2022.7(Mon Aug 22 20:01:30 MSK 2022)
(GPL source distribution)
Java Runtime: OpenJDK Runtime Environment
JVM: OpenJDK 64-Bit Server VM
Default Encoding: Cp1251
Language: ru
Country: RU
--></g></svg>