<?xml version="1.0" encoding="UTF-8" standalone="no"?><svg xmlns="http://www.w3.org/2000/svg" xmlns:xlink="http://www.w3.org/1999/xlink" contentStyleType="text/css" height="403px" preserveAspectRatio="none" style="width:272px;height:403px;background:#FFFFFF;" version="1.1" viewBox="0 0 272 403" width="272px" zoomAndPan="magnify"><defs/><g><ellipse cx="123.5" cy="20" fill="#222222" rx="10" ry="10" style="stroke:#222222;stroke-width:1.0;"/><rect fill="#F1F1F1" height="50.1875" rx="12.5" ry="12.5" style="stroke:#181818;stroke-width:0.5;" width="200" x="23.5" y="50"/><text fill="#000000" font-family="sans-serif" font-size="12" lengthAdjust="spacing" textLength="180" x="33.5" y="72.457">В МПСО новый "утвержденный"</text><text fill="#000000" font-family="sans-serif" font-size="12" lengthAdjust="spacing" textLength="118" x="33.5" y="87.5508">и "актуальный" отчет</text><rect fill="#F1F1F1" height="65.2813" rx="12.5" ry="12.5" style="stroke:#181818;stroke-width:0.5;" width="225" x="11" y="172.7773"/><text fill="#000000" font-family="sans-serif" font-size="12" lengthAdjust="spacing" textLength="205" x="21" y="195.2344">удалить предыдущую версию отчета</text><text fill="#000000" font-family="sans-serif" font-size="12" lengthAdjust="spacing" textLength="193" x="21" y="210.3281">из таблицы истории, поступившую</text><text fill="#000000" font-family="sans-serif" font-size="12" lengthAdjust="spacing" textLength="200" x="21" y="225.4219">в текущий период сбора или замен</text><polygon fill="#F1F1F1" points="73,120.1875,174,120.1875,186,134.0234,174,147.8594,73,147.8594,61,134.0234,73,120.1875" style="stroke:#181818;stroke-width:0.5;"/><text fill="#000000" font-family="sans-serif" font-size="11" lengthAdjust="spacing" textLength="12" x="127.5" y="159.2783">да</text><text fill="#000000" font-family="sans-serif" font-size="11" lengthAdjust="spacing" textLength="75" x="73" y="131.6064">сейчас период</text><text fill="#000000" font-family="sans-serif" font-size="11" lengthAdjust="spacing" textLength="101" x="73" y="145.4424">"сбора" или "замен"</text><text fill="#000000" font-family="sans-serif" font-size="11" lengthAdjust="spacing" textLength="18" x="186" y="131.6064">нет</text><polygon fill="#F1F1F1" points="123.5,258.0586,135.5,270.0586,123.5,282.0586,111.5,270.0586,123.5,258.0586" style="stroke:#181818;stroke-width:0.5;"/><rect fill="#F1F1F1" height="50.1875" rx="12.5" ry="12.5" style="stroke:#181818;stroke-width:0.5;" width="196" x="25.5" y="302.0586"/><text fill="#000000" font-family="sans-serif" font-size="12" lengthAdjust="spacing" textLength="176" x="35.5" y="324.5156">загрузить новую версию отчета</text><text fill="#000000" font-family="sans-serif" font-size="12" lengthAdjust="spacing" textLength="103" x="35.5" y="339.6094">в таблицу истории</text><ellipse cx="123.5" cy="382.2461" fill="none" rx="10" ry="10" style="stroke:#222222;stroke-width:1.5;"/><line style="stroke:#222222;stroke-width:2.5;" x1="117.3128" x2="129.6872" y1="376.0589" y2="388.4333"/><line style="stroke:#222222;stroke-width:2.5;" x1="129.6872" x2="117.3128" y1="376.0589" y2="388.4333"/><line style="stroke:#181818;stroke-width:1.0;" x1="123.5" x2="123.5" y1="30" y2="50"/><polygon fill="#181818" points="119.5,40,123.5,50,127.5,40,123.5,44" style="stroke:#181818;stroke-width:1.0;"/><line style="stroke:#181818;stroke-width:1.0;" x1="123.5" x2="123.5" y1="147.8594" y2="172.7773"/><polygon fill="#181818" points="119.5,162.7773,123.5,172.7773,127.5,162.7773,123.5,166.7773" style="stroke:#181818;stroke-width:1.0;"/><line style="stroke:#181818;stroke-width:1.0;" x1="186" x2="246" y1="134.0234" y2="134.0234"/><polygon fill="#181818" points="242,194.5,246,204.5,250,194.5,246,198.5" style="stroke:#181818;stroke-width:1.0;"/><line style="stroke:#181818;stroke-width:1.0;" x1="246" x2="246" y1="134.0234" y2="270.0586"/><line style="stroke:#181818;stroke-width:1.0;" x1="246" x2="135.5" y1="270.0586" y2="270.0586"/><polygon fill="#181818" points="145.5,266.0586,135.5,270.0586,145.5,274.0586,141.5,270.0586" style="stroke:#181818;stroke-width:1.0;"/><line style="stroke:#181818;stroke-width:1.0;" x1="123.5" x2="123.5" y1="238.0586" y2="258.0586"/><polygon fill="#181818" points="119.5,248.0586,123.5,258.0586,127.5,248.0586,123.5,252.0586" style="stroke:#181818;stroke-width:1.0;"/><line style="stroke:#181818;stroke-width:1.0;" x1="123.5" x2="123.5" y1="100.1875" y2="120.1875"/><polygon fill="#181818" points="119.5,110.1875,123.5,120.1875,127.5,110.1875,123.5,114.1875" style="stroke:#181818;stroke-width:1.0;"/><line style="stroke:#181818;stroke-width:1.0;" x1="123.5" x2="123.5" y1="282.0586" y2="302.0586"/><polygon fill="#181818" points="119.5,292.0586,123.5,302.0586,127.5,292.0586,123.5,296.0586" style="stroke:#181818;stroke-width:1.0;"/><line style="stroke:#181818;stroke-width:1.0;" x1="123.5" x2="123.5" y1="352.2461" y2="372.2461"/><polygon fill="#181818" points="119.5,362.2461,123.5,372.2461,127.5,362.2461,123.5,366.2461" style="stroke:#181818;stroke-width:1.0;"/><!--MD5=[1806f13af4498c5dda815e030e84b04e]
@startuml
start
:В МПСО новый "утвержденный" 
и "актуальный" отчет;
if (сейчас период 
"сбора" или "замен") then (да)
:удалить предыдущую версию отчета
из таблицы истории, поступившую
в текущий период сбора или замен;
else (нет)
endif
:загрузить новую версию отчета
в таблицу истории;
end
@enduml

PlantUML version 1.2022.7(Mon Aug 22 20:01:30 MSK 2022)
(GPL source distribution)
Java Runtime: OpenJDK Runtime Environment
JVM: OpenJDK 64-Bit Server VM
Default Encoding: Cp1251
Language: ru
Country: RU
--></g></svg>