<?xml version="1.0" encoding="UTF-8" standalone="no"?><svg xmlns="http://www.w3.org/2000/svg" xmlns:xlink="http://www.w3.org/1999/xlink" contentStyleType="text/css" height="664px" preserveAspectRatio="none" style="width:348px;height:664px;background:#FFFFFF;" version="1.1" viewBox="0 0 348 664" width="348px" zoomAndPan="magnify"><defs/><g><path d="M135,10 L135,36.3516 L336,36.3516 L336,20 L326,10 L135,10 " fill="#FEFFDD" style="stroke:#181818;stroke-width:0.5;"/><path d="M326,10 L326,20 L336,20 L326,10 " fill="#FEFFDD" style="stroke:#181818;stroke-width:0.5;"/><text fill="#000000" font-family="sans-serif" font-size="13" lengthAdjust="spacing" textLength="180" x="141" y="28.4951">Процесс стартует каждый час</text><ellipse cx="105" cy="23.1758" fill="#222222" rx="10" ry="10" style="stroke:#222222;stroke-width:1.0;"/><rect fill="#F1F1F1" height="65.2813" rx="12.5" ry="12.5" style="stroke:#181818;stroke-width:0.5;" width="81" x="64.5" y="189.2031"/><text fill="#000000" font-family="sans-serif" font-size="12" lengthAdjust="spacing" textLength="61" x="74.5" y="211.6602">загружаем</text><text fill="#000000" font-family="sans-serif" font-size="12" lengthAdjust="spacing" textLength="54" x="74.5" y="226.7539">сведения</text><text fill="#000000" font-family="sans-serif" font-size="12" lengthAdjust="spacing" textLength="53" x="74.5" y="241.8477">в витрину</text><rect fill="#F1F1F1" height="65.2813" rx="12.5" ry="12.5" style="stroke:#181818;stroke-width:0.5;" width="134" x="38" y="340.9102"/><text fill="#000000" font-family="sans-serif" font-size="12" lengthAdjust="spacing" textLength="99" x="48" y="363.3672">обновляем метку</text><text fill="#000000" font-family="sans-serif" font-size="12" lengthAdjust="spacing" textLength="76" x="48" y="378.4609">актуальности</text><text fill="#000000" font-family="sans-serif" font-size="12" lengthAdjust="spacing" textLength="114" x="48" y="393.5547">для "старой" записи</text><rect fill="#F1F1F1" height="50.1875" rx="12.5" ry="12.5" style="stroke:#181818;stroke-width:0.5;" width="160" x="25" y="431.7676"/><text fill="#000000" font-family="sans-serif" font-size="12" lengthAdjust="spacing" textLength="121" x="35" y="454.2246">обновляем сведения</text><text fill="#000000" font-family="sans-serif" font-size="12" lengthAdjust="spacing" textLength="140" x="35" y="469.3184">об изменениях в данных</text><polygon fill="#F1F1F1" points="32,274.4844,178,274.4844,190,295.2383,178,315.9922,32,315.9922,20,295.2383,32,274.4844" style="stroke:#181818;stroke-width:0.5;"/><text fill="#000000" font-family="sans-serif" font-size="11" lengthAdjust="spacing" textLength="12" x="109" y="327.4111">да</text><text fill="#000000" font-family="sans-serif" font-size="11" lengthAdjust="spacing" textLength="146" x="32" y="285.9033">отчет по такой организации,</text><text fill="#000000" font-family="sans-serif" font-size="11" lengthAdjust="spacing" textLength="126" x="35" y="299.7393">на такую отчетную дату</text><text fill="#000000" font-family="sans-serif" font-size="11" lengthAdjust="spacing" textLength="103" x="35" y="313.5752">уже есть в витрине</text><text fill="#000000" font-family="sans-serif" font-size="11" lengthAdjust="spacing" textLength="18" x="190" y="292.8213">нет</text><polygon fill="#F1F1F1" points="105,501.9551,117,513.9551,105,525.9551,93,513.9551,105,501.9551" style="stroke:#181818;stroke-width:0.5;"/><polygon fill="#F1F1F1" points="35.5,122.7773,174.5,122.7773,186.5,143.5313,174.5,164.2852,35.5,164.2852,23.5,143.5313,35.5,122.7773" style="stroke:#181818;stroke-width:0.5;"/><text fill="#000000" font-family="sans-serif" font-size="11" lengthAdjust="spacing" textLength="12" x="109" y="175.7041">да</text><text fill="#000000" font-family="sans-serif" font-size="11" lengthAdjust="spacing" textLength="104" x="35.5" y="134.1963">есть новые отчеты,</text><text fill="#000000" font-family="sans-serif" font-size="11" lengthAdjust="spacing" textLength="139" x="35.5" y="148.0322">которые еще не загружены</text><text fill="#000000" font-family="sans-serif" font-size="11" lengthAdjust="spacing" textLength="53" x="35.5" y="161.8682">в витрину</text><text fill="#000000" font-family="sans-serif" font-size="11" lengthAdjust="spacing" textLength="18" x="186.5" y="141.1143">нет</text><polygon fill="#F1F1F1" points="105,545.9551,117,557.9551,105,569.9551,93,557.9551,105,545.9551" style="stroke:#181818;stroke-width:0.5;"/><polygon fill="#F1F1F1" points="44.5,56.3516,165.5,56.3516,177.5,77.1055,165.5,97.8594,44.5,97.8594,32.5,77.1055,44.5,56.3516" style="stroke:#181818;stroke-width:0.5;"/><text fill="#000000" font-family="sans-serif" font-size="11" lengthAdjust="spacing" textLength="18" x="109" y="109.2783">нет</text><text fill="#000000" font-family="sans-serif" font-size="11" lengthAdjust="spacing" textLength="121" x="44.5" y="67.7705">текущая дата попадает</text><text fill="#000000" font-family="sans-serif" font-size="11" lengthAdjust="spacing" textLength="100" x="44.5" y="81.6064">в период сбора или</text><text fill="#000000" font-family="sans-serif" font-size="11" lengthAdjust="spacing" textLength="70" x="44.5" y="95.4424">период замен</text><text fill="#000000" font-family="sans-serif" font-size="11" lengthAdjust="spacing" textLength="12" x="177.5" y="74.6885">да</text><polygon fill="#F1F1F1" points="105,589.9551,117,601.9551,105,613.9551,93,601.9551,105,589.9551" style="stroke:#181818;stroke-width:0.5;"/><ellipse cx="105" cy="643.9551" fill="none" rx="10" ry="10" style="stroke:#222222;stroke-width:1.5;"/><line style="stroke:#222222;stroke-width:2.5;" x1="98.8128" x2="111.1872" y1="637.7679" y2="650.1423"/><line style="stroke:#222222;stroke-width:2.5;" x1="111.1872" x2="98.8128" y1="637.7679" y2="650.1423"/><line style="stroke:#181818;stroke-width:1.0;" x1="105" x2="105" y1="406.1914" y2="431.7676"/><polygon fill="#181818" points="101,421.7676,105,431.7676,109,421.7676,105,425.7676" style="stroke:#181818;stroke-width:1.0;"/><line style="stroke:#181818;stroke-width:1.0;" x1="105" x2="105" y1="315.9922" y2="340.9102"/><polygon fill="#181818" points="101,330.9102,105,340.9102,109,330.9102,105,334.9102" style="stroke:#181818;stroke-width:1.0;"/><line style="stroke:#181818;stroke-width:1.0;" x1="190" x2="202" y1="295.2383" y2="295.2383"/><polygon fill="#181818" points="198,401.7676,202,411.7676,206,401.7676,202,405.7676" style="stroke:#181818;stroke-width:1.0;"/><line style="stroke:#181818;stroke-width:1.0;" x1="202" x2="202" y1="295.2383" y2="513.9551"/><line style="stroke:#181818;stroke-width:1.0;" x1="202" x2="117" y1="513.9551" y2="513.9551"/><polygon fill="#181818" points="127,509.9551,117,513.9551,127,517.9551,123,513.9551" style="stroke:#181818;stroke-width:1.0;"/><line style="stroke:#181818;stroke-width:1.0;" x1="105" x2="105" y1="481.9551" y2="501.9551"/><polygon fill="#181818" points="101,491.9551,105,501.9551,109,491.9551,105,495.9551" style="stroke:#181818;stroke-width:1.0;"/><line style="stroke:#181818;stroke-width:1.0;" x1="105" x2="105" y1="254.4844" y2="274.4844"/><polygon fill="#181818" points="101,264.4844,105,274.4844,109,264.4844,105,268.4844" style="stroke:#181818;stroke-width:1.0;"/><line style="stroke:#181818;stroke-width:1.0;" x1="105" x2="105" y1="164.2852" y2="189.2031"/><polygon fill="#181818" points="101,179.2031,105,189.2031,109,179.2031,105,183.2031" style="stroke:#181818;stroke-width:1.0;"/><line style="stroke:#181818;stroke-width:1.0;" x1="186.5" x2="217" y1="143.5313" y2="143.5313"/><polygon fill="#181818" points="213,342.873,217,352.873,221,342.873,217,346.873" style="stroke:#181818;stroke-width:1.0;"/><line style="stroke:#181818;stroke-width:1.0;" x1="217" x2="217" y1="143.5313" y2="557.9551"/><line style="stroke:#181818;stroke-width:1.0;" x1="217" x2="117" y1="557.9551" y2="557.9551"/><polygon fill="#181818" points="127,553.9551,117,557.9551,127,561.9551,123,557.9551" style="stroke:#181818;stroke-width:1.0;"/><line style="stroke:#181818;stroke-width:1.0;" x1="105" x2="105" y1="525.9551" y2="545.9551"/><polygon fill="#181818" points="101,535.9551,105,545.9551,109,535.9551,105,539.9551" style="stroke:#181818;stroke-width:1.0;"/><line style="stroke:#181818;stroke-width:1.0;" x1="105" x2="105" y1="97.8594" y2="122.7773"/><polygon fill="#181818" points="101,112.7773,105,122.7773,109,112.7773,105,116.7773" style="stroke:#181818;stroke-width:1.0;"/><line style="stroke:#181818;stroke-width:1.0;" x1="177.5" x2="239" y1="77.1055" y2="77.1055"/><polygon fill="#181818" points="235,334.1191,239,344.1191,243,334.1191,239,338.1191" style="stroke:#181818;stroke-width:1.0;"/><line style="stroke:#181818;stroke-width:1.0;" x1="239" x2="239" y1="77.1055" y2="601.9551"/><line style="stroke:#181818;stroke-width:1.0;" x1="239" x2="117" y1="601.9551" y2="601.9551"/><polygon fill="#181818" points="127,597.9551,117,601.9551,127,605.9551,123,601.9551" style="stroke:#181818;stroke-width:1.0;"/><line style="stroke:#181818;stroke-width:1.0;" x1="105" x2="105" y1="569.9551" y2="589.9551"/><polygon fill="#181818" points="101,579.9551,105,589.9551,109,579.9551,105,583.9551" style="stroke:#181818;stroke-width:1.0;"/><line style="stroke:#181818;stroke-width:1.0;" x1="105" x2="105" y1="33.1758" y2="56.3516"/><polygon fill="#181818" points="101,46.3516,105,56.3516,109,46.3516,105,50.3516" style="stroke:#181818;stroke-width:1.0;"/><line style="stroke:#181818;stroke-width:1.0;" x1="105" x2="105" y1="613.9551" y2="633.9551"/><polygon fill="#181818" points="101,623.9551,105,633.9551,109,623.9551,105,627.9551" style="stroke:#181818;stroke-width:1.0;"/><!--MD5=[6140114bb46326f19fdf639b8567e028]
@startuml
start 
floating note right: Процесс стартует каждый час
 if (текущая дата попадает
в период сбора или 
период замен) then (да)
 else (нет)
  if (есть новые отчеты,
которые еще не загружены
в витрину) then (да)
 :загружаем 
 сведения 
 в витрину;
 if (отчет по такой организации,
 на такую отчетную дату
 уже есть в витрине) then (нет)
    
 else (да)
 :обновляем метку
 актуальности 
 для "старой" записи;
 :обновляем сведения 
 об изменениях в данных;
 endif


else (нет)
endif

 endif
end
@enduml

PlantUML version 1.2022.7(Mon Aug 22 20:01:30 MSK 2022)
(GPL source distribution)
Java Runtime: OpenJDK Runtime Environment
JVM: OpenJDK 64-Bit Server VM
Default Encoding: Cp1251
Language: ru
Country: RU
--></g></svg>